<svg xmlns="http://www.w3.org/2000/svg" viewBox="0 0 64 64">
  <path fill="var(--nr-icon-brand, #2f99a4)" d="M10 8a6 6 0 0 0-6 6v36a6 6 0 0 0 6 6h8v-8h-6V16h6V8h-8Zm36 0v8h6v32h-6v8h8a6 6 0 0 0 6-6V14a6 6 0 0 0-6-6h-8Z"/>
  <path fill="currentColor" d="M18 12h28a8 8 0 0 1 8 8v17a8 8 0 0 1-8 8H32L20 56V45h-2a8 8 0 0 1-8-8V20a8 8 0 0 1 8-8Z"/>
  <path fill="var(--icon-color-accent, #ff8700)" d="M32 17c1.4 6.6 4.7 9.9 11.3 11.3-6.6 1.4-9.9 4.7-11.3 11.3-1.4-6.6-4.7-9.9-11.3-11.3C27.3 26.9 30.6 23.6 32 17Z"/>
</svg>
